<svg version="1" xmlns="http://www.w3.org/2000/svg" width="152" height="152" viewBox="0 0 114.000000 114.000000"><path d="M50.8 24.7c-.2 10.9.1 20.4.6 21 1.2 1.8 12 1.7 13.5 0 .6-.9.9-3.7.6-7.3-.2-3.2-.4-12.1-.5-19.7V5H51.2l-.4 19.7zM21.9 26C11.8 36.5 7.3 48.7 8.2 63c.5 6.4 1.2 8.8 5.2 16.6 7.1 14.1 18.1 23.3 32.1 27 8.5 2.3 8.5 2.3 8.5-5.5v-6.9l-3.7-.7c-9.1-1.7-19-9.2-23.2-17.6-2.7-5.4-3.1-7.3-3.1-14.4 0-10.4 1.8-15.6 8-23.4 2.8-3.3 5-6.6 5-7.2 0-.6-1.2-3.3-2.7-6-3.5-6.5-5.3-6.4-12.4 1.1zM82 25.6l-3.2 5.6 3.7 3.8 3.8 3.9 4.6-2.4c7.9-4.1 7.7-3.8 3.6-8.4-2.1-2.3-5.1-5.1-6.6-6.2L85.2 20 82 25.6zM95.8 42.4c-5.2 3.1-5.2 2.9-3.8 8.5l1.2 5.1h6.9c5 0 6.7-.3 6.5-1.3-.2-.6-1.2-4.2-2.1-8-1.9-7.5-2.7-7.9-8.7-4.3z"/><path d="M62.2 51.2c-.5.7-2.7 7-4.8 14C53.9 76.7 52 80.7 52 76.6c0-2.1-1.9-3-3.5-1.6-1.1.9-1.5.5-2-2.7-1.1-6.3-1.5-7.2-3.7-7.5-1.7-.2-2.4-1.4-3.4-5.6-1.4-6.7-2.6-7.9-4.9-5.5-1.3 1.3-2 1.4-2.3.5C32 53.6 31 53 30 53c-1.4 0-2.3 1.4-3.4 5.4-1.9 6.3-1.9 6.6-.7 6.6.5 0 1.2-1.7 1.6-3.8.9-5.6 1.9-6.9 4-5.2 1.5 1.2 1.9 1.2 3-.3.7-.9 1.4-1.7 1.7-1.7.3 0 1 2.5 1.7 5.6 1 4.2 1.8 5.7 3.6 6.4 1.5.6 2.5 2 2.9 3.9.3 1.7.9 4.4 1.2 6.1.6 3.3 2.1 3.9 3.1 1.4.5-1.4.9-1.3 2.4.7 1.2 1.6 2.1 2.1 2.8 1.4.5-.6 2.6-6.6 4.7-13.5 4.1-13.9 4.8-15.2 7.8-14.8 1.7.2 2.7 2.5 5.8 13.2 2.1 7.1 4.5 13.8 5.5 14.8 2 2.3 5.5 2.3 7.5 0 1.9-2 4.9-12.2 3.7-12.2-.8 0-2.9 6.3-2.9 8.7 0 .7-1.2 2-2.6 2.9-2.4 1.6-2.6 1.6-4.3-.2-.9-1-3.2-7.1-5.1-13.4-1.8-6.3-3.7-12.3-4.2-13.3-1-2-6.1-2.3-7.6-.5zM92 68.2c-.6 2.4-1.2 4.7-1.2 5.3-.1 1.4 9.2 6.7 10.8 6.1 1.4-.5 4.4-9.5 4.4-13.3 0-2.2-.4-2.3-6.5-2.3H93l-1 4.2zM82.1 84.5l-3.3 3.3 3.2 5.6c1.7 3.1 3.5 5.6 3.8 5.6 1.3 0 8.1-6 10.2-9l2-2.8-5.4-3.1c-2.9-1.7-5.7-3.1-6.2-3.1s-2.4 1.6-4.3 3.5zM65 93.9c-2.3.6-2.5 1.2-2.8 7.5l-.3 6.8 3.3-.7c6-1.2 10.3-2.5 11.8-3.5 1.3-.8 1.1-1.6-1.1-5.7-2.8-5.1-5.2-6.1-10.9-4.4z"/></svg>